<mxfile host="app.diagrams.net" modified="2023-03-29T21:09:27.147Z" agent="Mozilla/5.0 (Windows NT 10.0; Win64; x64) AppleWebKit/537.36 (KHTML, like Gecko) Chrome/111.0.0.0 Safari/537.36" etag="itNUdH74tbBVpxXUEPh_" version="21.1.2" type="device">
  <diagram name="PÃ¡gina-1" id="OFlFge8HKMDxQr-XdvGW">
    <mxGraphModel dx="971" dy="436" grid="1" gridSize="10" guides="1" tooltips="1" connect="1" arrows="1" fold="1" page="1" pageScale="1" pageWidth="827" pageHeight="1169" math="0" shadow="0">
      <root>
        <mxCell id="0" />
        <mxCell id="1" parent="0" />
        <mxCell id="TZsVn0mFYQbVB2vfKE1I-45" style="edgeStyle=orthogonalEdgeStyle;rounded=0;sketch=1;hachureGap=4;jiggle=2;curveFitting=1;orthogonalLoop=1;jettySize=auto;html=1;exitX=1;exitY=0.25;exitDx=0;exitDy=0;entryX=0;entryY=0.443;entryDx=0;entryDy=0;entryPerimeter=0;fontFamily=Architects Daughter;fontSource=https%3A%2F%2Ffonts.googleapis.com%2Fcss%3Ffamily%3DArchitects%2BDaughter;fontSize=16;" edge="1" parent="1" source="TZsVn0mFYQbVB2vfKE1I-7">
          <mxGeometry relative="1" as="geometry">
            <mxPoint x="814" y="551.63" as="targetPoint" />
          </mxGeometry>
        </mxCell>
        <mxCell id="TZsVn0mFYQbVB2vfKE1I-7" value="Client" style="whiteSpace=wrap;html=1;aspect=fixed;sketch=1;hachureGap=4;jiggle=2;curveFitting=1;fontFamily=Architects Daughter;fontSource=https%3A%2F%2Ffonts.googleapis.com%2Fcss%3Ffamily%3DArchitects%2BDaughter;fontSize=20;fillColor=#ffe6cc;strokeColor=#d79b00;" vertex="1" parent="1">
          <mxGeometry x="414" y="525" width="110" height="110" as="geometry" />
        </mxCell>
        <mxCell id="TZsVn0mFYQbVB2vfKE1I-8" value="Sends a request to one endpoint of the API" style="text;html=1;align=center;verticalAlign=middle;resizable=0;points=[];autosize=1;strokeColor=none;fillColor=none;fontSize=10;fontFamily=Architects Daughter;rounded=0;" vertex="1" parent="1">
          <mxGeometry x="544" y="525" width="230" height="30" as="geometry" />
        </mxCell>
        <mxCell id="TZsVn0mFYQbVB2vfKE1I-13" style="edgeStyle=orthogonalEdgeStyle;rounded=0;sketch=1;hachureGap=4;jiggle=2;curveFitting=1;orthogonalLoop=1;jettySize=auto;html=1;entryX=0;entryY=0.5;entryDx=0;entryDy=0;fontFamily=Architects Daughter;fontSource=https%3A%2F%2Ffonts.googleapis.com%2Fcss%3Ffamily%3DArchitects%2BDaughter;fontSize=16;endArrow=none;endFill=0;" edge="1" parent="1" source="TZsVn0mFYQbVB2vfKE1I-9" target="TZsVn0mFYQbVB2vfKE1I-12">
          <mxGeometry relative="1" as="geometry" />
        </mxCell>
        <mxCell id="TZsVn0mFYQbVB2vfKE1I-9" value="Models" style="whiteSpace=wrap;html=1;aspect=fixed;sketch=1;hachureGap=4;jiggle=2;curveFitting=1;fontFamily=Architects Daughter;fontSource=https%3A%2F%2Ffonts.googleapis.com%2Fcss%3Ffamily%3DArchitects%2BDaughter;fontSize=20;fillColor=#dae8fc;strokeColor=#6c8ebf;" vertex="1" parent="1">
          <mxGeometry x="1014" y="530" width="90" height="90" as="geometry" />
        </mxCell>
        <mxCell id="TZsVn0mFYQbVB2vfKE1I-10" value="ORM maps the database" style="text;html=1;align=center;verticalAlign=middle;resizable=0;points=[];autosize=1;strokeColor=none;fillColor=none;fontSize=10;fontFamily=Architects Daughter;" vertex="1" parent="1">
          <mxGeometry x="974" y="495" width="140" height="30" as="geometry" />
        </mxCell>
        <mxCell id="TZsVn0mFYQbVB2vfKE1I-12" value="DB" style="shape=datastore;whiteSpace=wrap;html=1;sketch=1;hachureGap=4;jiggle=2;curveFitting=1;fontFamily=Architects Daughter;fontSource=https%3A%2F%2Ffonts.googleapis.com%2Fcss%3Ffamily%3DArchitects%2BDaughter;fontSize=20;fillColor=#f5f5f5;fontColor=#333333;strokeColor=#666666;" vertex="1" parent="1">
          <mxGeometry x="1234" y="545" width="60" height="60" as="geometry" />
        </mxCell>
        <mxCell id="TZsVn0mFYQbVB2vfKE1I-42" style="edgeStyle=orthogonalEdgeStyle;rounded=0;sketch=1;hachureGap=4;jiggle=2;curveFitting=1;orthogonalLoop=1;jettySize=auto;html=1;exitX=1;exitY=0.5;exitDx=0;exitDy=0;fontFamily=Architects Daughter;fontSource=https%3A%2F%2Ffonts.googleapis.com%2Fcss%3Ffamily%3DArchitects%2BDaughter;fontSize=16;entryX=-0.001;entryY=0.446;entryDx=0;entryDy=0;entryPerimeter=0;endArrow=none;endFill=0;" edge="1" parent="1" source="TZsVn0mFYQbVB2vfKE1I-14" target="TZsVn0mFYQbVB2vfKE1I-9">
          <mxGeometry relative="1" as="geometry" />
        </mxCell>
        <mxCell id="TZsVn0mFYQbVB2vfKE1I-46" style="edgeStyle=orthogonalEdgeStyle;rounded=0;sketch=1;hachureGap=4;jiggle=2;curveFitting=1;orthogonalLoop=1;jettySize=auto;html=1;exitX=0;exitY=0.75;exitDx=0;exitDy=0;entryX=1;entryY=0.611;entryDx=0;entryDy=0;entryPerimeter=0;fontFamily=Architects Daughter;fontSource=https%3A%2F%2Ffonts.googleapis.com%2Fcss%3Ffamily%3DArchitects%2BDaughter;fontSize=16;" edge="1" parent="1" source="TZsVn0mFYQbVB2vfKE1I-14" target="TZsVn0mFYQbVB2vfKE1I-7">
          <mxGeometry relative="1" as="geometry" />
        </mxCell>
        <mxCell id="TZsVn0mFYQbVB2vfKE1I-14" value="Views" style="whiteSpace=wrap;html=1;aspect=fixed;sketch=1;hachureGap=4;jiggle=2;curveFitting=1;fontFamily=Architects Daughter;fontSource=https%3A%2F%2Ffonts.googleapis.com%2Fcss%3Ffamily%3DArchitects%2BDaughter;fontSize=20;fillColor=#d5e8d4;strokeColor=#82b366;" vertex="1" parent="1">
          <mxGeometry x="818" y="525" width="90" height="90" as="geometry" />
        </mxCell>
        <mxCell id="TZsVn0mFYQbVB2vfKE1I-16" value="Returns a http response" style="text;html=1;align=center;verticalAlign=middle;resizable=0;points=[];autosize=1;strokeColor=none;fillColor=none;fontSize=10;fontFamily=Architects Daughter;" vertex="1" parent="1">
          <mxGeometry x="584" y="590" width="140" height="30" as="geometry" />
        </mxCell>
        <mxCell id="TZsVn0mFYQbVB2vfKE1I-31" value="Data Layer" style="text;html=1;strokeColor=none;fillColor=none;align=center;verticalAlign=middle;whiteSpace=wrap;rounded=0;fontSize=50;fontFamily=Architects Daughter;" vertex="1" parent="1">
          <mxGeometry x="934" y="370" width="320" height="70" as="geometry" />
        </mxCell>
        <mxCell id="TZsVn0mFYQbVB2vfKE1I-33" value="Client Layer" style="text;html=1;strokeColor=none;fillColor=none;align=center;verticalAlign=middle;whiteSpace=wrap;rounded=0;fontSize=25;fontFamily=Architects Daughter;" vertex="1" parent="1">
          <mxGeometry x="564" y="410" width="150" height="45" as="geometry" />
        </mxCell>
        <mxCell id="TZsVn0mFYQbVB2vfKE1I-38" value="Manipulate the models" style="text;html=1;strokeColor=none;fillColor=none;align=center;verticalAlign=middle;whiteSpace=wrap;rounded=0;fontSize=10;fontFamily=Architects Daughter;" vertex="1" parent="1">
          <mxGeometry x="924" y="530" width="60" height="30" as="geometry" />
        </mxCell>
        <mxCell id="TZsVn0mFYQbVB2vfKE1I-47" value="Fetch data from the DB" style="text;html=1;strokeColor=none;fillColor=none;align=center;verticalAlign=middle;whiteSpace=wrap;rounded=0;fontSize=10;fontFamily=Architects Daughter;" vertex="1" parent="1">
          <mxGeometry x="1124" y="540" width="100" height="30" as="geometry" />
        </mxCell>
      </root>
    </mxGraphModel>
  </diagram>
</mxfile>
